<svg width="1514" height="1514" viewBox="0 0 1514 1514" fill="none" xmlns="http://www.w3.org/2000/svg">
<g id="logo-outline">
<g id="Union">
<mask id="path-1-inside-1" fill="white">
<path fill-rule="evenodd" clip-rule="evenodd" d="M1188.73 9.72555L915.618 282.766C903.898 294.482 903.898 313.482 915.618 325.198L1042.6 452.144C1042.95 452.495 1043.15 452.97 1043.15 453.466C1043.15 453.981 1043.36 454.473 1043.73 454.826C1123.98 530.726 1174.04 638.193 1174.04 757.351C1174.04 872.229 1127.51 976.242 1052.26 1051.58C1052.18 1051.66 1052.24 1051.8 1052.35 1051.8C1052.42 1051.8 1052.46 1051.84 1052.48 1051.9C1052.48 1051.94 1052.47 1051.98 1052.44 1052.02L915.618 1188.8C903.898 1200.52 903.898 1219.52 915.618 1231.23L1188.73 1504.27C1200.44 1515.99 1219.44 1515.99 1231.15 1504.27L1504.26 1231.23C1515.98 1219.52 1515.98 1200.52 1504.26 1188.8L1394.34 1078.9C1301.6 1002.53 1242.47 886.846 1242.47 757.351C1242.47 629.844 1299.8 515.724 1390.09 439.344L1504.26 325.198C1515.98 313.482 1515.98 294.482 1504.26 282.766L1231.15 9.72554C1219.44 -1.98649 1200.44 -1.98647 1188.73 9.72555ZM282.849 9.72554C294.564 -1.98649 313.555 -1.98647 325.27 9.72556L619.407 303.786L619.604 303.982L966.32 650.608C978.04 662.324 978.04 681.323 966.32 693.04L693.208 966.08C681.493 977.792 662.503 977.792 650.788 966.08L389.632 704.993C372.898 688.263 344.754 696.738 342.676 720.309C341.6 732.513 341.051 744.868 341.051 757.351C341.051 872.032 387.425 975.886 462.449 1051.19C462.672 1051.41 462.514 1051.8 462.198 1051.8C461.881 1051.8 461.723 1052.18 461.947 1052.4L598.382 1188.8C610.102 1200.52 610.102 1219.52 598.382 1231.23L325.27 1504.27C313.555 1515.99 294.564 1515.99 282.849 1504.27L9.73733 1231.23C-1.98211 1219.52 -1.9821 1200.52 9.73734 1188.8L115.027 1083.54C211.054 1007.26 272.626 889.494 272.626 757.351C272.626 626.853 212.578 510.376 118.598 434.03L9.73732 325.198C-1.98211 313.482 -1.9821 294.482 9.73734 282.766L282.849 9.72554Z"/>
</mask>
<path d="M915.618 282.766L905.013 272.158L905.013 272.158L915.618 282.766ZM1188.73 9.72555L1199.33 20.3335L1199.33 20.3335L1188.73 9.72555ZM915.618 325.198L905.013 335.806L905.013 335.806L915.618 325.198ZM1042.6 452.144L1031.99 462.752L1031.99 462.753L1042.6 452.144ZM1043.73 454.826L1033.42 465.724L1033.42 465.724L1043.73 454.826ZM1052.26 1051.58L1062.87 1062.18L1062.87 1062.18L1052.26 1051.58ZM1052.48 1051.9L1067.13 1048.7L1067.13 1048.68L1067.12 1048.67L1052.48 1051.9ZM1052.44 1052.02L1063.05 1062.62L1063.05 1062.62L1052.44 1052.02ZM915.618 1188.8L905.013 1178.19L905.013 1178.19L915.618 1188.8ZM915.618 1231.23L926.223 1220.63L926.223 1220.63L915.618 1231.23ZM1188.73 1504.27L1199.33 1493.67L1199.33 1493.67L1188.73 1504.27ZM1231.15 1504.27L1241.76 1514.88L1241.76 1514.88L1231.15 1504.27ZM1504.26 1231.23L1493.66 1220.63L1493.66 1220.63L1504.26 1231.23ZM1504.26 1188.8L1514.87 1178.19L1514.87 1178.19L1504.26 1188.8ZM1394.34 1078.9L1404.94 1068.3L1404.43 1067.78L1403.87 1067.32L1394.34 1078.9ZM1390.09 439.344L1399.77 450.796L1400.25 450.393L1400.69 449.952L1390.09 439.344ZM1504.26 325.198L1493.66 314.59L1493.66 314.59L1504.26 325.198ZM1504.26 282.766L1493.66 293.374L1493.66 293.374L1504.26 282.766ZM1231.15 9.72554L1220.55 20.3335L1220.55 20.3335L1231.15 9.72554ZM325.27 9.72556L335.875 -0.882436L335.875 -0.882448L325.27 9.72556ZM282.849 9.72554L293.455 20.3335L293.455 20.3335L282.849 9.72554ZM619.407 303.786L630.013 293.178L630.012 293.178L619.407 303.786ZM619.604 303.982L608.998 314.589L608.998 314.59L619.604 303.982ZM966.32 650.608L976.926 640L976.925 640L966.32 650.608ZM966.32 693.04L976.926 703.648L976.926 703.648L966.32 693.04ZM693.208 966.08L682.603 955.472L682.603 955.472L693.208 966.08ZM650.788 966.08L661.393 955.472L661.393 955.472L650.788 966.08ZM389.632 704.993L379.027 715.601L379.027 715.601L389.632 704.993ZM342.676 720.309L327.734 718.992L327.734 718.992L342.676 720.309ZM462.449 1051.19L451.823 1061.78L451.824 1061.78L462.449 1051.19ZM461.947 1052.4L451.34 1063.01L451.342 1063.01L461.947 1052.4ZM598.382 1188.8L608.987 1178.19L608.987 1178.19L598.382 1188.8ZM598.382 1231.23L587.777 1220.63L587.777 1220.63L598.382 1231.23ZM325.27 1504.27L314.665 1493.67L314.665 1493.67L325.27 1504.27ZM282.849 1504.27L272.244 1514.88L272.244 1514.88L282.849 1504.27ZM9.73733 1231.23L20.3425 1220.63L20.3425 1220.63L9.73733 1231.23ZM9.73734 1188.8L-0.867873 1178.19L-0.867906 1178.19L9.73734 1188.8ZM115.027 1083.54L105.697 1071.79L105.027 1072.33L104.422 1072.93L115.027 1083.54ZM118.598 434.03L107.993 444.638L108.54 445.185L109.14 445.673L118.598 434.03ZM9.73732 325.198L-0.86789 335.806L-0.867887 335.806L9.73732 325.198ZM9.73734 282.766L-0.867875 272.158L-0.867877 272.158L9.73734 282.766ZM926.223 293.374L1199.33 20.3335L1178.12 -0.882437L905.013 272.158L926.223 293.374ZM926.223 314.59C920.363 308.732 920.363 299.232 926.223 293.374L905.013 272.158C887.433 289.733 887.433 318.231 905.013 335.806L926.223 314.59ZM1053.2 441.536L926.223 314.59L905.013 335.806L1031.99 462.752L1053.2 441.536ZM1058.15 453.466C1058.15 448.992 1056.37 444.7 1053.2 441.536L1031.99 462.753C1029.53 460.29 1028.15 456.949 1028.15 453.466H1058.15ZM1054.04 443.929C1056.65 446.397 1058.15 449.841 1058.15 453.466H1028.15C1028.15 458.12 1030.07 462.548 1033.42 465.724L1054.04 443.929ZM1189.04 757.351C1189.04 633.901 1137.16 522.543 1054.04 443.929L1033.42 465.724C1110.8 538.909 1159.04 642.486 1159.04 757.351H1189.04ZM1062.87 1062.18C1140.82 984.146 1189.04 876.365 1189.04 757.351H1159.04C1159.04 868.094 1114.2 968.339 1041.65 1040.98L1062.87 1062.18ZM1052.35 1036.8C1065.61 1036.8 1072.23 1052.82 1062.87 1062.18L1041.65 1040.97C1032.13 1050.49 1038.86 1066.8 1052.35 1066.8V1036.8ZM1067.12 1048.67C1065.77 1042.55 1060.26 1036.8 1052.35 1036.8V1066.8C1044.58 1066.8 1039.15 1061.14 1037.83 1055.13L1067.12 1048.67ZM1063.05 1062.62C1066.95 1058.72 1068.15 1053.37 1067.13 1048.7L1037.82 1055.1C1036.82 1050.51 1038 1045.24 1041.83 1041.41L1063.05 1062.62ZM926.223 1199.41L1063.05 1062.62L1041.84 1041.41L905.013 1178.19L926.223 1199.41ZM926.223 1220.63C920.363 1214.77 920.363 1205.27 926.223 1199.41L905.013 1178.19C887.433 1195.77 887.433 1224.27 905.013 1241.84L926.223 1220.63ZM1199.33 1493.67L926.223 1220.63L905.013 1241.84L1178.12 1514.88L1199.33 1493.67ZM1220.55 1493.67C1214.69 1499.52 1205.19 1499.52 1199.33 1493.67L1178.12 1514.88C1195.7 1532.45 1224.18 1532.45 1241.76 1514.88L1220.55 1493.67ZM1493.66 1220.63L1220.55 1493.67L1241.76 1514.88L1514.87 1241.84L1493.66 1220.63ZM1493.66 1199.41C1499.52 1205.27 1499.52 1214.77 1493.66 1220.63L1514.87 1241.84C1532.45 1224.27 1532.45 1195.77 1514.87 1178.19L1493.66 1199.41ZM1383.73 1089.51L1493.66 1199.41L1514.87 1178.19L1404.94 1068.3L1383.73 1089.51ZM1227.47 757.351C1227.47 891.518 1288.75 1011.39 1384.8 1090.48L1403.87 1067.32C1314.44 993.681 1257.47 882.174 1257.47 757.351H1227.47ZM1380.4 427.892C1286.88 506.999 1227.47 625.245 1227.47 757.351H1257.47C1257.47 634.443 1312.71 524.448 1399.77 450.796L1380.4 427.892ZM1493.66 314.59L1379.48 428.736L1400.69 449.952L1514.87 335.806L1493.66 314.59ZM1493.66 293.374C1499.52 299.232 1499.52 308.732 1493.66 314.59L1514.87 335.806C1532.45 318.231 1532.45 289.733 1514.87 272.158L1493.66 293.374ZM1220.55 20.3335L1493.66 293.374L1514.87 272.158L1241.76 -0.882456L1220.55 20.3335ZM1199.33 20.3335C1205.19 14.4775 1214.69 14.4775 1220.55 20.3335L1241.76 -0.882453C1224.18 -18.4505 1195.7 -18.4505 1178.12 -0.882434L1199.33 20.3335ZM335.875 -0.882448C318.303 -18.4504 289.817 -18.4505 272.244 -0.882453L293.455 20.3335C299.312 14.4775 308.807 14.4775 314.665 20.3336L335.875 -0.882448ZM630.012 293.178L335.875 -0.882436L314.665 20.3335L608.802 314.394L630.012 293.178ZM630.209 293.375L630.013 293.178L608.801 314.393L608.998 314.589L630.209 293.375ZM976.925 640L630.209 293.374L608.998 314.59L955.715 661.216L976.925 640ZM976.926 703.648C994.505 686.073 994.505 657.574 976.926 640L955.715 661.216C961.575 667.074 961.575 676.574 955.715 682.432L976.926 703.648ZM703.814 976.688L976.926 703.648L955.715 682.432L682.603 955.472L703.814 976.688ZM640.182 976.688C657.755 994.256 686.241 994.256 703.814 976.688L682.603 955.472C676.746 961.328 667.25 961.328 661.393 955.472L640.182 976.688ZM379.027 715.601L640.182 976.688L661.393 955.472L400.237 694.385L379.027 715.601ZM357.618 721.627C358.091 716.265 361.19 713.105 365.188 711.838C369.387 710.508 374.73 711.306 379.027 715.601L400.237 694.385C387.799 681.95 370.704 678.621 356.128 683.239C341.352 687.92 329.34 700.782 327.734 718.992L357.618 721.627ZM356.051 757.351C356.051 745.308 356.581 733.393 357.618 721.627L327.734 718.992C326.619 731.633 326.051 744.427 326.051 757.351H356.051ZM473.076 1040.6C400.738 967.995 356.051 867.904 356.051 757.351H326.051C326.051 876.161 374.113 983.776 451.823 1061.78L473.076 1040.6ZM462.198 1066.8C475.895 1066.8 482.7 1050.26 473.075 1040.6L451.824 1061.78C442.645 1052.57 449.133 1036.8 462.198 1036.8V1066.8ZM472.553 1041.8C481.777 1051.02 475.248 1066.8 462.198 1066.8V1036.8C448.515 1036.8 441.669 1053.34 451.34 1063.01L472.553 1041.8ZM608.987 1178.19L472.552 1041.79L451.342 1063.01L587.777 1199.41L608.987 1178.19ZM608.987 1241.84C626.567 1224.27 626.566 1195.77 608.987 1178.19L587.777 1199.41C593.637 1205.27 593.637 1214.77 587.777 1220.63L608.987 1241.84ZM335.875 1514.88L608.987 1241.84L587.777 1220.63L314.665 1493.67L335.875 1514.88ZM272.244 1514.88C289.817 1532.45 318.303 1532.45 335.875 1514.88L314.665 1493.67C308.807 1499.52 299.312 1499.52 293.454 1493.67L272.244 1514.88ZM-0.86788 1241.84L272.244 1514.88L293.455 1493.67L20.3425 1220.63L-0.86788 1241.84ZM-0.867906 1178.19C-18.447 1195.77 -18.4471 1224.27 -0.867854 1241.84L20.3425 1220.63C14.4829 1214.77 14.4828 1205.27 20.3426 1199.41L-0.867906 1178.19ZM104.422 1072.93L-0.867873 1178.19L20.3425 1199.41L125.633 1094.15L104.422 1072.93ZM257.626 757.351C257.626 884.725 198.297 998.238 105.697 1071.79L124.357 1095.28C223.811 1016.28 287.626 894.263 287.626 757.351H257.626ZM109.14 445.673C199.765 519.293 257.626 631.561 257.626 757.351H287.626C287.626 622.144 225.391 501.459 128.056 422.388L109.14 445.673ZM-0.867887 335.806L107.993 444.638L129.204 423.422L20.3425 314.59L-0.867887 335.806ZM-0.867877 272.158C-18.447 289.733 -18.447 318.231 -0.86789 335.806L20.3425 314.59C14.4828 308.732 14.4828 299.232 20.3426 293.374L-0.867877 272.158ZM272.244 -0.882455L-0.867875 272.158L20.3425 293.374L293.455 20.3335L272.244 -0.882455Z" fill="black" mask="url(#path-1-inside-1)"/>
</g>
</g>
</svg>
