<svg width="1514" height="1514" viewBox="0 0 1514 1514" fill="none" xmlns="http://www.w3.org/2000/svg">
<g id="logo-white">
<path id="Union" fill-rule="evenodd" clip-rule="evenodd" d="M1188.73 9.72559L915.618 282.766C903.898 294.482 903.898 313.482 915.618 325.198L1042.6 452.145C1042.95 452.495 1043.15 452.97 1043.15 453.466C1043.15 453.981 1043.36 454.473 1043.73 454.826C1123.98 530.726 1174.04 638.193 1174.04 757.351C1174.04 872.229 1127.51 976.242 1052.26 1051.58C1052.18 1051.66 1052.24 1051.8 1052.35 1051.8C1052.42 1051.8 1052.46 1051.84 1052.48 1051.9C1052.48 1051.94 1052.47 1051.98 1052.44 1052.02L915.618 1188.8C903.898 1200.52 903.898 1219.52 915.618 1231.23L1188.73 1504.27C1200.44 1515.99 1219.44 1515.99 1231.15 1504.27L1504.26 1231.23C1515.98 1219.52 1515.98 1200.52 1504.26 1188.8L1394.34 1078.9C1301.6 1002.53 1242.47 886.846 1242.47 757.351C1242.47 629.844 1299.8 515.724 1390.09 439.344L1504.26 325.198C1515.98 313.482 1515.98 294.482 1504.26 282.766L1231.15 9.72557C1219.44 -1.98645 1200.44 -1.98644 1188.73 9.72559ZM282.849 9.72557C294.564 -1.98645 313.555 -1.98643 325.27 9.72559L619.407 303.786L619.604 303.982L966.32 650.608C978.04 662.324 978.04 681.323 966.32 693.04L693.208 966.08C681.493 977.792 662.503 977.792 650.788 966.08L389.632 704.993C372.898 688.263 344.754 696.738 342.676 720.309C341.6 732.513 341.051 744.868 341.051 757.351C341.051 872.032 387.425 975.886 462.449 1051.19C462.672 1051.41 462.514 1051.8 462.198 1051.8C461.881 1051.8 461.723 1052.18 461.947 1052.4L598.382 1188.8C610.102 1200.52 610.102 1219.52 598.382 1231.23L325.27 1504.27C313.555 1515.99 294.564 1515.99 282.849 1504.27L9.73733 1231.23C-1.98211 1219.52 -1.9821 1200.52 9.73734 1188.8L115.027 1083.54C211.054 1007.26 272.626 889.494 272.626 757.351C272.626 626.853 212.578 510.376 118.598 434.03L9.73732 325.198C-1.98211 313.482 -1.9821 294.482 9.73734 282.766L282.849 9.72557Z" fill="white"/>
</g>
</svg>
